<svg xmlns="http://www.w3.org/2000/svg" viewBox="0 0 1024 1024" width="1024" height="1024"><rect width="1024" height="1024" fill="#1F1F1F"/><g transform="translate(196 218) scale(4)"><g fill="#FAF8F1"><path d="M99 107H68C79 95 85 86 82 74C79 61 68 54 56 57C47 59 42 66 42 73C42 79 48 81 52 77C58 69 69 75 67 85C65 98 54 105 42 103C21 101 12 84 15 64C19 38 44 23 69 27C96 31 113 53 112 80C112 90 107 100 99 107Z"/></g><g fill="none" stroke="#FFE600" stroke-width="9" stroke-linecap="round"><path d="M116 35L123 20M125 45L141 40"/></g></g></svg>
